<svg
  aria-hidden="true"
  style="position: absolute; width: 0; height: 0; overflow: hidden;"
  version="1.1"
  xmlns="http://www.w3.org/2000/svg"
  xmlns:xlink="http://www.w3.org/1999/xlink">
  <defs>
    <symbol id="icon-lj" viewBox="0 0 32 32">
      <title>Livejournal</title>
      <path d="M24.12 19.595c-2.016 0.885-3.635 2.513-4.508 4.532l5.693 1.177-1.181-5.709h-0.004zM3.3 11.089l-3.3-3.289c1.5-3.484 4.288-6.28 7.764-7.8h0.008l3.292 3.284c1.824-0.788 3.835-1.228 5.951-1.228 8.275 0 14.985 6.703 14.985 14.972s-6.711 14.972-14.985 14.972c-8.28 0-14.988-6.699-14.988-14.972 0-2.121 0.473-4.108 1.269-5.935l12.191 12.152c1.5-3.484 4.291-6.28 7.764-7.8l-12.191-12.16c-3.475 1.52-6.26 4.32-7.764 7.8l0.004 0.004z"></path>
    </symbol>
    <symbol id="icon-email" viewBox="0 0 32 32">
      <title>Email</title>
      <path d="M29 4h-26c-1.65 0-3 1.35-3 3v20c0 1.65 1.35 3 3 3h26c1.65 0 3-1.35 3-3v-20c0-1.65-1.35-3-3-3zM12.461 17.199l-8.461 6.59v-15.676l8.461 9.086zM5.512 8h20.976l-10.488 7.875-10.488-7.875zM12.79 17.553l3.21 3.447 3.21-3.447 6.58 8.447h-19.579l6.58-8.447zM19.539 17.199l8.461-9.086v15.676l-8.461-6.59z"></path>
    </symbol>
    <symbol id="icon-earth" viewBox="0 0 32 32">
      <title>Website</title>
      <path d="M16 0c-8.837 0-16 7.163-16 16s7.163 16 16 16 16-7.163 16-16-7.163-16-16-16zM16 30c-1.967 0-3.84-0.407-5.538-1.139l7.286-8.197c0.163-0.183 0.253-0.419 0.253-0.664v-3c0-0.552-0.448-1-1-1-3.531 0-7.256-3.671-7.293-3.707-0.188-0.188-0.442-0.293-0.707-0.293h-4c-0.552 0-1 0.448-1 1v6c0 0.379 0.214 0.725 0.553 0.894l3.447 1.724v5.871c-3.627-2.53-6-6.732-6-11.489 0-2.147 0.484-4.181 1.348-6h3.652c0.265 0 0.52-0.105 0.707-0.293l4-4c0.188-0.188 0.293-0.442 0.293-0.707v-2.419c1.268-0.377 2.61-0.581 4-0.581 2.2 0 4.281 0.508 6.134 1.412-0.13 0.109-0.256 0.224-0.376 0.345-1.133 1.133-1.757 2.64-1.757 4.243s0.624 3.109 1.757 4.243c1.139 1.139 2.663 1.758 4.239 1.758 0.099 0 0.198-0.002 0.297-0.007 0.432 1.619 1.211 5.833-0.263 11.635-0.014 0.055-0.022 0.109-0.026 0.163-2.541 2.596-6.084 4.208-10.004 4.208z"></path>
      </symbol>
    <symbol id="icon-fb" viewBox="0 0 32 32">
      <title>Facebook</title>
      <path d="M19 6h5v-6h-5c-3.86 0-7 3.14-7 7v3h-4v6h4v16h6v-16h5l1-6h-6v-3c0-0.542 0.458-1 1-1z"></path>
    </symbol>
    <symbol id="icon-wiki" viewBox="0 0 1700 1700">
      <title>Wikipedia</title>
      <path d="m560.95 1412.7h74.09l247.37-479.88 203.5 479.88h71.33l422.78-972.73c23.7-54.57 69.9-87.34 119-94.76v-57.933h-341.86v57.953c45.36 10.09 93.51 27.09 114.92 74.961l-310.44 716.06c-56.12-119.35-113.66-249.77-168.58-379.92 56.685-120.43 102.98-232.29 172.52-342.22 40.656-64.68 106.63-66.2 140.63-69.38v-57.45h-363.4v57.45c45.34.045 139.69 4.078 97.62 92.49l-105.39 221.59-111.63-246.49c-17.379-38.38 16.38-63.95 71.49-66.997l-.405-57.993h-408.98v57.45c48.728 1.601 117.43 1.34 142.79 42.655 78.09 143.45 130.3 292.46 201.49 438.72l-184.22 344.49-309.64-711.78c-34.892-80.21 47.945-106.05 101.76-112.75l-.605-58.794h-436.06v57.45c60.21 19.908 137.88 109.48 159.56 154.81 162.89 340.7 244.91 569.12 400.39 913.18z"></path>
    </symbol>
    <symbol id="icon-youtube" viewBox="0 0 32 32">
      <title>Youtube</title>
      <path d="M31.681 9.6c0 0-0.313-2.206-1.275-3.175-1.219-1.275-2.581-1.281-3.206-1.356-4.475-0.325-11.194-0.325-11.194-0.325h-0.012c0 0-6.719 0-11.194 0.325-0.625 0.075-1.987 0.081-3.206 1.356-0.963 0.969-1.269 3.175-1.269 3.175s-0.319 2.588-0.319 5.181v2.425c0 2.587 0.319 5.181 0.319 5.181s0.313 2.206 1.269 3.175c1.219 1.275 2.819 1.231 3.531 1.369 2.563 0.244 10.881 0.319 10.881 0.319s6.725-0.012 11.2-0.331c0.625-0.075 1.988-0.081 3.206-1.356 0.962-0.969 1.275-3.175 1.275-3.175s0.319-2.587 0.319-5.181v-2.425c-0.006-2.588-0.325-5.181-0.325-5.181zM12.694 20.15v-8.994l8.644 4.513-8.644 4.481z"></path>
    </symbol>
  </defs>
</svg>
